<svg xmlns="http://www.w3.org/2000/svg" aria-hidden="true" style="position:absolute;width:0;height:0;overflow:hidden">
  <defs>
    <symbol id="online" viewBox="0 0 32 32">
      <path d="M32 16a16 16 0 1 1-32 0 16 16 0 0 1 32 0z"/>
      <path d="M26.67 16a10.67 10.67 0 1 1-21.34 0 10.67 10.67 0 0 1 21.34 0z"/>
    </symbol>
    <symbol id="star" viewBox="0 0 32 32">
      <path stroke-width="2.4" d="M19.6 10.4a2.2 2.2 0 0 0 1.57 1.14l7.6 1.3-5.37 5.54a2.2 2.2 0 0 0-.63 1.6l.03.25 1.1 7.63-6.93-3.4-.23-.1a2.2 2.2 0 0 0-1.47 0l-.24.1-6.92 3.4 1.1-7.63a2.2 2.2 0 0 0-.44-1.65l-.16-.2-5.38-5.53 7.6-1.31a2.2 2.2 0 0 0 1.44-.93l.13-.21L16 3.57l3.6 6.83z"/>
    </symbol>
    <symbol id="book-open" viewBox="0 0 32 32">
      <path stroke-linecap="round" stroke-linejoin="round" stroke-width="3" d="M29.33 8.27c0-1.5 0-2.24-.29-2.81a2.67 2.67 0 0 0-1.16-1.17C27.3 4 26.56 4 25.07 4h-.54c-2.98 0-4.48 0-5.62.58a5.33 5.33 0 0 0-2.33 2.33C16 8.05 16 9.55 16 12.53V28l.13-.2c.93-1.39 1.4-2.08 2-2.59a5.34 5.34 0 0 1 1.84-.98c.76-.23 1.6-.23 3.26-.23h1.84c1.49 0 2.24 0 2.8-.3.5-.25.92-.65 1.17-1.16.3-.57.3-1.31.3-2.8V8.26zm-26.66 0c0-1.5 0-2.24.29-2.81.25-.5.66-.91 1.16-1.17C4.7 4 5.44 4 6.93 4h.54c2.98 0 4.48 0 5.62.58a5.33 5.33 0 0 1 2.33 2.33c.58 1.14.58 2.64.58 5.62V28l-.13-.2c-.93-1.39-1.4-2.08-2-2.59a5.34 5.34 0 0 0-1.84-.98c-.76-.23-1.6-.23-3.26-.23H6.93c-1.49 0-2.24 0-2.8-.3a2.67 2.67 0 0 1-1.17-1.16c-.3-.57-.3-1.31-.3-2.8V8.26z"/>
    </symbol>
    <symbol id="eye-open" viewBox="0 0 32 32">
      <path stroke-linecap="round" stroke-linejoin="round" stroke-width="3.2" d="M1.33 16S6.67 5.33 16 5.33 30.67 16 30.67 16M1.33 16S6.67 26.67 16 26.67 30.67 16 30.67 16"/>
      <path stroke-linecap="round" stroke-linejoin="round" stroke-width="3.2" d="M20 16a4 4 0 1 1-8 0 4 4 0 0 1 8 0z"/>
    </symbol>
    <symbol id="eye-close" viewBox="0 0 32 32">
      <path stroke-linecap="round" stroke-linejoin="round" stroke-width="3.2" d="M23.92 23.92A13.43 13.43 0 0 1 16 26.67C6.67 26.67 1.33 16 1.33 16a24.6 24.6 0 0 1 6.75-7.92m5.12-2.43a12.16 12.16 0 0 1 2.8-.32C25.33 5.33 30.67 16 30.67 16a24.65 24.65 0 0 1-2.88 4.25m-8.96-1.42a4.01 4.01 0 0 1-2.86 1.27 3.98 3.98 0 0 1-1.57-.3 3.98 3.98 0 0 1-2.2-2.2 4 4 0 0 1 .98-4.43M1.33 1.34l29.34 29.34"/>
    </symbol>
    <symbol id="login" viewBox="0 0 32 32">
      <path stroke-linecap="round" stroke-linejoin="round" stroke-width="3.2" d="M20 4h1.6c2.24 0 3.36 0 4.22.44a4 4 0 0 1 1.74 1.74c.44.86.44 1.98.44 4.22v11.2c0 2.24 0 3.36-.44 4.22a4 4 0 0 1-1.74 1.74c-.86.44-1.98.44-4.22.44H20M13.33 9.33 20 16m0 0-6.67 6.67M20 16H4"/>
    </symbol>
    <symbol id="register" viewBox="0 0 32 32">
      <path stroke-linecap="round" stroke-linejoin="round" stroke-width="3.2" d="M16 4H6.67A2.67 2.67 0 0 0 4 6.67v18.66C4 26.81 5.2 28 6.67 28h18.66c1.48 0 2.67-1.2 2.67-2.67V16"/>
      <path stroke-linecap="round" stroke-linejoin="round" stroke-width="3.2" d="M24.5 3.5a2.82 2.82 0 0 1 4.83 2c0 .78-.32 1.49-.83 2L16.48 19.52c-.3.3-.69.54-1.11.67h-.02l-3.83 1.12a.67.67 0 0 1-.83-.83l1.12-3.83c.13-.44.37-.82.67-1.13z"/>
    </symbol>
    <symbol id="arrow-down" viewBox="0 0 32 32">
      <path stroke-linecap="round" stroke-linejoin="round" stroke-width="3.2" d="m8 12 8 8 8-8"/>
    </symbol>
    <symbol id="arrow-up" viewBox="0 0 32 32">
      <path stroke-linecap="round" stroke-linejoin="round" stroke-width="3.2" d="m8 20 8-8 8 8"/>
    </symbol>
    <symbol id="heart-color" viewBox="0 0 32 32">
      <path stroke-linecap="round" stroke-linejoin="round" stroke-width="1.23" d="M27.79 6.15a7.33 7.33 0 0 0-10.38 0l-1.4 1.41-1.42-1.41a7.33 7.33 0 0 0-10.38 0 7.33 7.33 0 0 0 0 10.37l11.8 11.79 11.78-11.79a7.33 7.33 0 0 0 0-10.37z"/>
    </symbol>
    <symbol id="heart" viewBox="0 0 32 32">
      <path stroke-linecap="round" stroke-linejoin="round" stroke-width="3.2" d="M27.79 6.15a7.33 7.33 0 0 0-10.38 0l-1.4 1.41-1.42-1.41a7.33 7.33 0 0 0-10.38 0 7.33 7.33 0 0 0 0 10.37l11.8 11.79 11.78-11.79a7.33 7.33 0 0 0 0-10.37z"/>
    </symbol>
    <symbol id="logo" viewBox="0 0 32 32">
      <path fill="#ffda44" d="M16 32a16 16 0 1 0 0-32 16 16 0 0 0 0 32z" style="fill:var(--color1, #ffda44)"/>
      <path fill="#338af3" d="M0 16a16 16 0 0 1 32 0z" style="fill:var(--color2, #338af3)"/>
    </symbol>
    <symbol id="mob-menu" viewBox="0 0 32 32">
      <path d="M32 2.4a.8.8 0 0 0-.8-.8h-24a.8.8 0 1 0 0 1.6h24a.8.8 0 0 0 .8-.8zm0 12.8a.8.8 0 0 0-.8-.8H.8a.8.8 0 1 0 0 1.6h30.4a.8.8 0 0 0 .8-.8zM32 28a.8.8 0 0 0-.8-.8H20a.8.8 0 1 0 0 1.6h11.2a.8.8 0 0 0 .8-.8z"/>
    </symbol>
    <symbol id="close-btn" viewBox="0 0 32 32">
      <path stroke-linecap="round" stroke-linejoin="round" stroke-width="2.5" d="M24 8 8 24M8 8l16 16"/>
    </symbol>
    <symbol id="palette" viewBox="0 0 32 32">
      <path d="M16 29.07c-1.8 0-3.5-.34-5.1-1a13.74 13.74 0 0 1-4.17-2.8 13.74 13.74 0 0 1-2.8-4.17c-.66-1.6-1-3.3-1-5.1 0-1.82.35-3.52 1.04-5.1a13.03 13.03 0 0 1 7.1-6.93 13.08 13.08 0 0 1 5.16-1.04c1.78 0 3.45.32 5 .94 1.56.6 2.91 1.43 4.07 2.5a11.58 11.58 0 0 1 2.77 3.76c.66 1.43 1 2.96 1 4.6 0 2.16-.76 4.03-2.27 5.6a7.35 7.35 0 0 1-5.53 2.34H19.2c-.16 0-.3.05-.43.16a.45.45 0 0 0-.2.4c0 .32.14.56.43.74.31.15.47.7.47 1.63 0 .84-.34 1.63-1 2.37a3.14 3.14 0 0 1-2.47 1.1zM8.9 17.2a1.9 1.9 0 0 0 1.4-.57c.4-.4.6-.87.6-1.43s-.2-1.02-.6-1.4c-.38-.4-.84-.6-1.4-.6s-1.03.2-1.43.6c-.38.38-.57.84-.57 1.4s.19 1.03.57 1.43c.4.38.88.57 1.43.57zm3.93-4.73a1.9 1.9 0 0 0 1.4-.57c.4-.4.6-.88.6-1.43s-.2-1.03-.6-1.4c-.37-.4-.84-.6-1.4-.6s-1.03.2-1.43.6c-.38.37-.57.84-.57 1.4s.2 1.03.57 1.43c.4.38.88.57 1.43.57zm6.34 0a1.9 1.9 0 0 0 1.4-.57c.4-.4.6-.88.6-1.43s-.2-1.03-.6-1.4c-.38-.4-.85-.6-1.4-.6s-1.04.2-1.44.6c-.37.37-.56.84-.56 1.4s.19 1.03.56 1.43c.4.38.88.57 1.44.57zm3.9 4.73a1.9 1.9 0 0 0 1.4-.57c.4-.4.6-.87.6-1.43s-.2-1.02-.6-1.4c-.38-.4-.85-.6-1.4-.6s-1.04.2-1.44.6c-.37.38-.56.84-.56 1.4s.19 1.03.56 1.43c.4.38.88.57 1.44.57zm-7.1 9.1c.22 0 .4-.09.53-.27s.2-.34.2-.5c0-.35-.17-.65-.5-.9s-.5-.77-.5-1.6a3 3 0 0 1 .9-2.2 3.05 3.05 0 0 1 2.23-.93h2.44a4.7 4.7 0 0 0 3.6-1.5 5.14 5.14 0 0 0 1.43-3.63c0-2.56-.98-4.7-2.93-6.44a10.3 10.3 0 0 0-7.14-2.63c-2.93 0-5.42 1-7.46 3S5.7 13.13 5.7 16a10 10 0 0 0 2.97 7.3c2 2 4.43 3 7.3 3z"/>
    </symbol>
    <symbol id="paint" viewBox="0 0 32 32">
      <path stroke-linecap="round" stroke-linejoin="round" stroke-width="2.91" d="M18.67 8.67a.67.67 0 1 1-1.34 0 .67.67 0 0 1 1.34 0zM24 14a.67.67 0 1 1-1.33 0A.67.67 0 0 1 24 14zM12 10a.67.67 0 1 1-1.33 0A.67.67 0 0 1 12 10zM9.33 16.67a.67.67 0 1 1-1.33 0 .67.67 0 0 1 1.33 0z"/>
      <path stroke-linecap="round" stroke-linejoin="round" stroke-width="2.91" d="M16 2.67c-7.33 0-13.33 6-13.33 13.33s6 13.33 13.33 13.33c1.24 0 2.2-1 2.2-2.25 0-.58-.24-1.11-.59-1.5a2 2 0 0 1-.58-1.5v-.04c0-1.2.98-2.18 2.19-2.18h2.7c4.06 0 7.4-3.34 7.4-7.4C29.3 8 23.28 2.65 16 2.65z"/>
    </symbol>
  </defs>
</svg>

